{"asset":{"version":"2.0","generator":"VECTARY"},"nodes":[{"translation":[0.0008936693860670956,0.08479046807343915,-0.022839239802721362],"scale":[0.001,0.001,0.005339851629888685],"rotation":[0,0,0,1],"name":"Path","mesh":0}],"materials":[{"pbrMetallicRoughness":{"baseColorFactor":[0.0000569217657121931,0.4761772653974402,0.7893137424155858,1],"metallicFactor":0.33,"roughnessFactor":0.33},"name":"Material","emissiveFactor":[0,0,0],"alphaMode":"OPAQUE","doubleSided":true}],"meshes":[{"primitives":[{"mode":4,"attributes":{"POSITION":1,"NORMAL":2},"material":0,"indices":0}]}],"accessors":[{"bufferView":0,"byteOffset":0,"componentType":5125,"count":7584,"type":"SCALAR"},{"bufferView":1,"byteOffset":0,"componentType":5126,"count":3754,"max":[108.875,84.18499755859375,7.199999809265137],"min":[-108.875,-84.18499755859375,0.20000000298023224],"type":"VEC3"},{"bufferView":2,"byteOffset":0,"componentType":5126,"count":3754,"type":"VEC3"}],"bufferViews":[{"buffer":0,"byteOffset":0,"byteLength":30336,"target":34963},{"buffer":0,"byteOffset":30336,"byteLength":45048,"target":34962},{"buffer":0,"byteOffset":75384,"byteLength":45048,"target":34962}],"scene":0,"scenes":[{"nodes":[0],"name":"Project Name"}],"extensionsUsed":["KHR_texture_transform"],"buffers":[{"byteLength":120432,"uri":"ProjectName.bin"}]}